<mxfile host="app.diagrams.net" modified="2021-02-22T12:22:02.977Z" agent="5.0 (Windows NT 10.0; Win64; x64) AppleWebKit/537.36 (KHTML, like Gecko) Chrome/88.0.4324.182 Safari/537.36" etag="uMXHbq-5_Y9aDWyZzc6j" version="14.3.0" type="github">
  <diagram id="qmCr2FLJXnJFnxge0UcX" name="Page-1">
    <mxGraphModel dx="1567" dy="944" grid="0" gridSize="10" guides="1" tooltips="1" connect="1" arrows="1" fold="1" page="1" pageScale="1" pageWidth="850" pageHeight="1100" math="0" shadow="0">
      <root>
        <mxCell id="0" />
        <mxCell id="1" parent="0" />
        <mxCell id="vO0fWZWFfqbv7m5PLt3y-3" style="edgeStyle=orthogonalEdgeStyle;rounded=0;orthogonalLoop=1;jettySize=auto;html=1;exitX=0.5;exitY=1;exitDx=0;exitDy=0;entryX=0.5;entryY=0;entryDx=0;entryDy=0;" edge="1" parent="1" source="vO0fWZWFfqbv7m5PLt3y-1" target="vO0fWZWFfqbv7m5PLt3y-2">
          <mxGeometry relative="1" as="geometry">
            <Array as="points">
              <mxPoint x="420" y="250" />
              <mxPoint x="170" y="250" />
            </Array>
          </mxGeometry>
        </mxCell>
        <mxCell id="vO0fWZWFfqbv7m5PLt3y-11" style="edgeStyle=orthogonalEdgeStyle;rounded=0;orthogonalLoop=1;jettySize=auto;html=1;" edge="1" parent="1" source="vO0fWZWFfqbv7m5PLt3y-1" target="vO0fWZWFfqbv7m5PLt3y-8">
          <mxGeometry relative="1" as="geometry">
            <Array as="points">
              <mxPoint x="420" y="250" />
              <mxPoint x="860" y="250" />
            </Array>
          </mxGeometry>
        </mxCell>
        <mxCell id="vO0fWZWFfqbv7m5PLt3y-16" style="edgeStyle=orthogonalEdgeStyle;rounded=0;orthogonalLoop=1;jettySize=auto;html=1;entryX=0.5;entryY=0;entryDx=0;entryDy=0;" edge="1" parent="1" source="vO0fWZWFfqbv7m5PLt3y-1" target="vO0fWZWFfqbv7m5PLt3y-4">
          <mxGeometry relative="1" as="geometry">
            <Array as="points">
              <mxPoint x="420" y="250" />
              <mxPoint x="320" y="250" />
            </Array>
          </mxGeometry>
        </mxCell>
        <mxCell id="vO0fWZWFfqbv7m5PLt3y-22" style="edgeStyle=orthogonalEdgeStyle;rounded=0;orthogonalLoop=1;jettySize=auto;html=1;" edge="1" parent="1" source="vO0fWZWFfqbv7m5PLt3y-1" target="vO0fWZWFfqbv7m5PLt3y-21">
          <mxGeometry relative="1" as="geometry">
            <Array as="points">
              <mxPoint x="420" y="250" />
              <mxPoint x="1350" y="250" />
            </Array>
          </mxGeometry>
        </mxCell>
        <mxCell id="vO0fWZWFfqbv7m5PLt3y-24" style="edgeStyle=orthogonalEdgeStyle;rounded=0;orthogonalLoop=1;jettySize=auto;html=1;" edge="1" parent="1" source="vO0fWZWFfqbv7m5PLt3y-1" target="vO0fWZWFfqbv7m5PLt3y-23">
          <mxGeometry relative="1" as="geometry">
            <Array as="points">
              <mxPoint x="420" y="250" />
              <mxPoint x="1510" y="250" />
            </Array>
          </mxGeometry>
        </mxCell>
        <mxCell id="vO0fWZWFfqbv7m5PLt3y-29" style="edgeStyle=orthogonalEdgeStyle;rounded=0;orthogonalLoop=1;jettySize=auto;html=1;" edge="1" parent="1" source="vO0fWZWFfqbv7m5PLt3y-1" target="vO0fWZWFfqbv7m5PLt3y-28">
          <mxGeometry relative="1" as="geometry">
            <Array as="points">
              <mxPoint x="420" y="250" />
              <mxPoint x="1200" y="250" />
            </Array>
          </mxGeometry>
        </mxCell>
        <mxCell id="vO0fWZWFfqbv7m5PLt3y-1" value="Vacation Planning&lt;br&gt;0" style="rounded=0;whiteSpace=wrap;html=1;" vertex="1" parent="1">
          <mxGeometry x="360" y="150" width="120" height="60" as="geometry" />
        </mxCell>
        <mxCell id="vO0fWZWFfqbv7m5PLt3y-2" value="Family members availability&lt;br&gt;1" style="rounded=0;whiteSpace=wrap;html=1;" vertex="1" parent="1">
          <mxGeometry x="110" y="300" width="120" height="60" as="geometry" />
        </mxCell>
        <mxCell id="vO0fWZWFfqbv7m5PLt3y-6" style="edgeStyle=orthogonalEdgeStyle;rounded=0;orthogonalLoop=1;jettySize=auto;html=1;exitX=0.5;exitY=1;exitDx=0;exitDy=0;entryX=0.5;entryY=0;entryDx=0;entryDy=0;" edge="1" parent="1" source="vO0fWZWFfqbv7m5PLt3y-4" target="vO0fWZWFfqbv7m5PLt3y-5">
          <mxGeometry relative="1" as="geometry" />
        </mxCell>
        <mxCell id="vO0fWZWFfqbv7m5PLt3y-10" style="edgeStyle=orthogonalEdgeStyle;rounded=0;orthogonalLoop=1;jettySize=auto;html=1;" edge="1" parent="1" source="vO0fWZWFfqbv7m5PLt3y-4" target="vO0fWZWFfqbv7m5PLt3y-9">
          <mxGeometry relative="1" as="geometry" />
        </mxCell>
        <mxCell id="vO0fWZWFfqbv7m5PLt3y-4" value="Decide Venue&lt;br&gt;2" style="rounded=0;whiteSpace=wrap;html=1;" vertex="1" parent="1">
          <mxGeometry x="260" y="300" width="120" height="60" as="geometry" />
        </mxCell>
        <mxCell id="vO0fWZWFfqbv7m5PLt3y-5" value="Google searches&lt;br&gt;2.1" style="rounded=0;whiteSpace=wrap;html=1;" vertex="1" parent="1">
          <mxGeometry x="170" y="420" width="120" height="60" as="geometry" />
        </mxCell>
        <mxCell id="vO0fWZWFfqbv7m5PLt3y-13" style="edgeStyle=orthogonalEdgeStyle;rounded=0;orthogonalLoop=1;jettySize=auto;html=1;entryX=0.5;entryY=0;entryDx=0;entryDy=0;" edge="1" parent="1" source="vO0fWZWFfqbv7m5PLt3y-8" target="vO0fWZWFfqbv7m5PLt3y-12">
          <mxGeometry relative="1" as="geometry">
            <Array as="points">
              <mxPoint x="860" y="390" />
              <mxPoint x="550" y="390" />
            </Array>
          </mxGeometry>
        </mxCell>
        <mxCell id="vO0fWZWFfqbv7m5PLt3y-15" style="edgeStyle=orthogonalEdgeStyle;rounded=0;orthogonalLoop=1;jettySize=auto;html=1;" edge="1" parent="1" source="vO0fWZWFfqbv7m5PLt3y-8" target="vO0fWZWFfqbv7m5PLt3y-14">
          <mxGeometry relative="1" as="geometry">
            <Array as="points">
              <mxPoint x="860" y="390" />
              <mxPoint x="710" y="390" />
            </Array>
          </mxGeometry>
        </mxCell>
        <mxCell id="vO0fWZWFfqbv7m5PLt3y-18" style="edgeStyle=orthogonalEdgeStyle;rounded=0;orthogonalLoop=1;jettySize=auto;html=1;" edge="1" parent="1" source="vO0fWZWFfqbv7m5PLt3y-8" target="vO0fWZWFfqbv7m5PLt3y-17">
          <mxGeometry relative="1" as="geometry">
            <Array as="points">
              <mxPoint x="860" y="390" />
              <mxPoint x="860" y="390" />
            </Array>
          </mxGeometry>
        </mxCell>
        <mxCell id="vO0fWZWFfqbv7m5PLt3y-20" style="edgeStyle=orthogonalEdgeStyle;rounded=0;orthogonalLoop=1;jettySize=auto;html=1;" edge="1" parent="1" source="vO0fWZWFfqbv7m5PLt3y-8" target="vO0fWZWFfqbv7m5PLt3y-19">
          <mxGeometry relative="1" as="geometry">
            <Array as="points">
              <mxPoint x="860" y="390" />
              <mxPoint x="1020" y="390" />
            </Array>
          </mxGeometry>
        </mxCell>
        <mxCell id="vO0fWZWFfqbv7m5PLt3y-8" value="Tour agency find&lt;br&gt;3" style="rounded=0;whiteSpace=wrap;html=1;" vertex="1" parent="1">
          <mxGeometry x="800" y="300" width="120" height="60" as="geometry" />
        </mxCell>
        <mxCell id="vO0fWZWFfqbv7m5PLt3y-9" value="Calculate estimated budget&lt;br&gt;2.2" style="rounded=0;whiteSpace=wrap;html=1;" vertex="1" parent="1">
          <mxGeometry x="330" y="420" width="120" height="60" as="geometry" />
        </mxCell>
        <mxCell id="vO0fWZWFfqbv7m5PLt3y-12" value="contact tour agency&lt;br&gt;3.1" style="rounded=0;whiteSpace=wrap;html=1;" vertex="1" parent="1">
          <mxGeometry x="490" y="420" width="120" height="60" as="geometry" />
        </mxCell>
        <mxCell id="vO0fWZWFfqbv7m5PLt3y-14" value="View different plans&lt;br&gt;3.2" style="rounded=0;whiteSpace=wrap;html=1;" vertex="1" parent="1">
          <mxGeometry x="650" y="420" width="120" height="60" as="geometry" />
        </mxCell>
        <mxCell id="vO0fWZWFfqbv7m5PLt3y-17" value="Select tour agency&lt;br&gt;3.3" style="rounded=0;whiteSpace=wrap;html=1;" vertex="1" parent="1">
          <mxGeometry x="800" y="420" width="120" height="60" as="geometry" />
        </mxCell>
        <mxCell id="vO0fWZWFfqbv7m5PLt3y-19" value="Book tickets&lt;br&gt;3.4" style="rounded=0;whiteSpace=wrap;html=1;" vertex="1" parent="1">
          <mxGeometry x="960" y="420" width="120" height="60" as="geometry" />
        </mxCell>
        <mxCell id="vO0fWZWFfqbv7m5PLt3y-21" value="Packing&amp;nbsp;&lt;br&gt;5" style="rounded=0;whiteSpace=wrap;html=1;" vertex="1" parent="1">
          <mxGeometry x="1290" y="310" width="120" height="60" as="geometry" />
        </mxCell>
        <mxCell id="vO0fWZWFfqbv7m5PLt3y-23" value="Visit&lt;br&gt;6" style="rounded=0;whiteSpace=wrap;html=1;" vertex="1" parent="1">
          <mxGeometry x="1470" y="310" width="120" height="60" as="geometry" />
        </mxCell>
        <mxCell id="vO0fWZWFfqbv7m5PLt3y-25" value="Plan0: Do 1,2,,3,5,6 if want to go with tour agency&lt;br&gt;Do: 1,2,4,5 ,6 if want to go and manage by own" style="text;html=1;align=center;verticalAlign=middle;resizable=0;points=[];autosize=1;" vertex="1" parent="1">
          <mxGeometry x="500" y="210" width="280" height="30" as="geometry" />
        </mxCell>
        <mxCell id="vO0fWZWFfqbv7m5PLt3y-26" value="Plan 2: Do 2.1 and 2.2" style="text;html=1;align=center;verticalAlign=middle;resizable=0;points=[];autosize=1;" vertex="1" parent="1">
          <mxGeometry x="340" y="360" width="130" height="20" as="geometry" />
        </mxCell>
        <mxCell id="vO0fWZWFfqbv7m5PLt3y-27" value="Plan 3: Do 3.1, 3.2, 3.3, 3.4" style="text;html=1;align=center;verticalAlign=middle;resizable=0;points=[];autosize=1;" vertex="1" parent="1">
          <mxGeometry x="860" y="360" width="160" height="20" as="geometry" />
        </mxCell>
        <mxCell id="vO0fWZWFfqbv7m5PLt3y-31" style="edgeStyle=orthogonalEdgeStyle;rounded=0;orthogonalLoop=1;jettySize=auto;html=1;entryX=0.5;entryY=0;entryDx=0;entryDy=0;" edge="1" parent="1" source="vO0fWZWFfqbv7m5PLt3y-28" target="vO0fWZWFfqbv7m5PLt3y-30">
          <mxGeometry relative="1" as="geometry" />
        </mxCell>
        <mxCell id="vO0fWZWFfqbv7m5PLt3y-28" value="Manage by own&lt;br&gt;4" style="rounded=0;whiteSpace=wrap;html=1;" vertex="1" parent="1">
          <mxGeometry x="1150" y="310" width="120" height="60" as="geometry" />
        </mxCell>
        <mxCell id="vO0fWZWFfqbv7m5PLt3y-30" value="Find best possible route&lt;br&gt;4.1" style="rounded=0;whiteSpace=wrap;html=1;" vertex="1" parent="1">
          <mxGeometry x="1150" y="420" width="120" height="60" as="geometry" />
        </mxCell>
        <mxCell id="vO0fWZWFfqbv7m5PLt3y-32" value="" style="endArrow=none;html=1;" edge="1" parent="1">
          <mxGeometry width="50" height="50" relative="1" as="geometry">
            <mxPoint x="118.5" y="368.82" as="sourcePoint" />
            <mxPoint x="221.5" y="368.82" as="targetPoint" />
          </mxGeometry>
        </mxCell>
        <mxCell id="vO0fWZWFfqbv7m5PLt3y-33" value="" style="endArrow=none;html=1;" edge="1" parent="1">
          <mxGeometry width="50" height="50" relative="1" as="geometry">
            <mxPoint x="1298.5" y="378.81999999999994" as="sourcePoint" />
            <mxPoint x="1401.5" y="378.81999999999994" as="targetPoint" />
          </mxGeometry>
        </mxCell>
        <mxCell id="vO0fWZWFfqbv7m5PLt3y-34" value="" style="endArrow=none;html=1;" edge="1" parent="1">
          <mxGeometry width="50" height="50" relative="1" as="geometry">
            <mxPoint x="1478.4999999999995" y="379.99999999999994" as="sourcePoint" />
            <mxPoint x="1581.5" y="379.99999999999994" as="targetPoint" />
          </mxGeometry>
        </mxCell>
        <mxCell id="vO0fWZWFfqbv7m5PLt3y-35" value="" style="endArrow=none;html=1;" edge="1" parent="1">
          <mxGeometry width="50" height="50" relative="1" as="geometry">
            <mxPoint x="178.49999999999955" y="487.9999999999998" as="sourcePoint" />
            <mxPoint x="281.5" y="487.9999999999998" as="targetPoint" />
          </mxGeometry>
        </mxCell>
        <mxCell id="vO0fWZWFfqbv7m5PLt3y-36" value="" style="endArrow=none;html=1;" edge="1" parent="1">
          <mxGeometry width="50" height="50" relative="1" as="geometry">
            <mxPoint x="339.99999999999955" y="489.9999999999998" as="sourcePoint" />
            <mxPoint x="443" y="489.9999999999998" as="targetPoint" />
          </mxGeometry>
        </mxCell>
        <mxCell id="vO0fWZWFfqbv7m5PLt3y-37" value="" style="endArrow=none;html=1;" edge="1" parent="1">
          <mxGeometry width="50" height="50" relative="1" as="geometry">
            <mxPoint x="499.99999999999955" y="488.9999999999998" as="sourcePoint" />
            <mxPoint x="603" y="488.9999999999998" as="targetPoint" />
          </mxGeometry>
        </mxCell>
        <mxCell id="vO0fWZWFfqbv7m5PLt3y-38" value="" style="endArrow=none;html=1;" edge="1" parent="1">
          <mxGeometry width="50" height="50" relative="1" as="geometry">
            <mxPoint x="666.9999999999995" y="489.9999999999998" as="sourcePoint" />
            <mxPoint x="770" y="489.9999999999998" as="targetPoint" />
          </mxGeometry>
        </mxCell>
        <mxCell id="vO0fWZWFfqbv7m5PLt3y-39" value="" style="endArrow=none;html=1;" edge="1" parent="1">
          <mxGeometry width="50" height="50" relative="1" as="geometry">
            <mxPoint x="810.9999999999995" y="490.9999999999998" as="sourcePoint" />
            <mxPoint x="914" y="490.9999999999998" as="targetPoint" />
          </mxGeometry>
        </mxCell>
        <mxCell id="vO0fWZWFfqbv7m5PLt3y-40" value="" style="endArrow=none;html=1;" edge="1" parent="1">
          <mxGeometry width="50" height="50" relative="1" as="geometry">
            <mxPoint x="976.9999999999995" y="488.9999999999998" as="sourcePoint" />
            <mxPoint x="1080" y="488.9999999999998" as="targetPoint" />
          </mxGeometry>
        </mxCell>
        <mxCell id="vO0fWZWFfqbv7m5PLt3y-41" value="" style="endArrow=none;html=1;" edge="1" parent="1">
          <mxGeometry width="50" height="50" relative="1" as="geometry">
            <mxPoint x="1163.9999999999995" y="488.9999999999998" as="sourcePoint" />
            <mxPoint x="1267" y="488.9999999999998" as="targetPoint" />
          </mxGeometry>
        </mxCell>
      </root>
    </mxGraphModel>
  </diagram>
</mxfile>
